<svg viewBox="0 0 1100 250" xmlns="http://www.w3.org/2000/svg" xmlns:xlink="http://www.w3.org/1999/xlink" width="1100" height="250" fill="none">
	<rect id="网页" width="1100" height="250" x="0" y="0" />
	<rect id="矩形 1" width="15" height="225" x="998" y="13" rx="7" fill="rgb(255,255,255)" />
	<rect id="矩形 4" width="15" height="160" x="1063" y="45" rx="7" fill="rgb(255,255,255)" />
	<rect id="矩形 5" width="15" height="160" x="23" y="45" rx="7" fill="rgb(255,255,255)" />
	<rect id="矩形 6" width="15" height="80" x="88" y="85" rx="7" fill="rgb(255,255,255)" />
	<rect id="矩形 7" width="15" height="30" x="153" y="110" rx="7" fill="rgb(255,255,255)" />
	<rect id="矩形 8" width="15" height="80" x="218" y="85" rx="7" fill="rgb(255,255,255)" />
	<rect id="矩形 9" width="15" height="160" x="283" y="45" rx="7" fill="rgb(255,255,255)" />
	<rect id="矩形 10" width="15" height="225" x="348" y="13" rx="7" fill="rgb(255,255,255)" />
	<rect id="矩形 17" width="15" height="160" x="803" y="45" rx="7" fill="rgb(255,255,255)" />
	<rect id="矩形 16" width="15" height="80" x="738" y="85" rx="7" fill="rgb(255,255,255)" />
	<rect id="矩形 15" width="15" height="30" x="673" y="110" rx="7" fill="rgb(255,255,255)" />
	<rect id="矩形 14" width="15" height="225" x="868" y="13" rx="7" fill="rgb(255,255,255)" />
	<rect id="矩形 13" width="15" height="80" x="608" y="85" rx="7" fill="rgb(255,255,255)" />
	<rect id="矩形 12" width="15" height="160" x="543" y="45" rx="7" fill="rgb(255,255,255)" />
	<rect id="矩形 11" width="15" height="225" x="478" y="13" rx="7" fill="rgb(255,255,255)" />
	<rect id="矩形 2" width="15" height="250" x="933" y="0" rx="7" fill="rgb(255,255,255)" />
	<rect id="矩形 3" width="15" height="250" x="413" y="0" rx="7" fill="rgb(255,255,255)" />
</svg>
