<?xml version="1.0" standalone="no"?><!DOCTYPE svg PUBLIC "-//W3C//DTD SVG 1.1//EN" "http://www.w3.org/Graphics/SVG/1.1/DTD/svg11.dtd"><svg t="1740584951824" class="icon" viewBox="0 0 1024 1024" version="1.1" xmlns="http://www.w3.org/2000/svg" p-id="5972" xmlns:xlink="http://www.w3.org/1999/xlink" width="200" height="200"><path d="M844.126415 223.288381l118.374666 118.374667a197.484639 197.484639 0 0 1-53.392242 30.491422l-106.935008-106.935008-30.40541 30.405409 88.506836 88.506836A198.645808 198.645808 0 0 1 639.997312 163.853762l88.356314 88.356313 30.405409-30.405409-106.762983-106.784486a196.818042 196.818042 0 0 1 30.469919-53.392243l118.267151 118.267151 30.405409-30.405409L681.670356 0.021503l-15.202705 15.202705a242.404653 242.404653 0 0 0-36.211252 295.667877 242.318641 242.318641 0 0 0-339.74927 304.892716 232.233678 232.233678 0 0 0-103.774049-25.02963h-0.34405a242.576678 242.576678 0 0 0-171.164822 73.239621l-15.202705 17.202495 149.468176 149.188635 30.405409-30.942987-118.267151-119.36381a217.525545 217.525545 0 0 1 50.983894-30.706453l109.214338 109.235841 30.40541-30.405409-92.205372-92.291384a177.959808 177.959808 0 0 1 26.470339-2.150312h0.27954a199.979001 199.979001 0 0 1 140.630394 60.767812 203.311984 203.311984 0 0 1 58.574495 142.823713 200.10802 200.10802 0 0 1-1.462212 23.051342l-88.764873-88.764872-30.405409 30.405409 107.150039 107.150039a198.710317 198.710317 0 0 1-30.68495 53.198715l-118.417673-118.417673-30.40541 30.405409 149.618698 149.618698 15.202705-15.761786a241.781063 241.781063 0 0 0 71.175322-172.024947 244.856009 244.856009 0 0 0-19.051763-94.33418 241.867075 241.867075 0 0 0 311.988744-342.845719 242.211125 242.211125 0 0 0 287.002121-41.328994l15.202705-15.202705-149.597195-149.554188z m-132.523719 327.557002l-97.538145-97.538145-30.405409 30.40541 115.256714 115.256714a197.828689 197.828689 0 0 1-31.609584 52.274081l-125.578211-125.578211-30.405409 30.405409 124.954621 124.933118a197.07608 197.07608 0 0 1-54.123349 29.781819l-112.762353-112.783856-30.405409 30.405409 93.474055 93.495559a199.247895 199.247895 0 0 1-17.976607 0.881628 199.183385 199.183385 0 0 1-199.161882-199.183386c0-6.020873 0.34405-12.020243 0.881628-17.955103l79.36801 79.368009 30.405409-30.405409-98.656307-98.656307a196.646018 196.646018 0 0 1 29.781819-54.101846l110.805569 110.805569 30.426912-30.405409-111.472165-111.450663a197.828689 197.828689 0 0 1 52.27408-31.609584l101.064657 101.064657 30.405409-30.40541-83.410596-83.410596a200.581088 200.581088 0 0 1 27.222948-2.150312 199.183385 199.183385 0 0 1 199.183385 199.161883 200.710107 200.710107 0 0 1-1.99979 27.394972z" p-id="5973" fill="#67C23A"></path></svg>